<svg width="15" height="14" viewBox="0 0 15 14" fill="none" xmlns="http://www.w3.org/2000/svg">
<g id="Frame" clip-path="url(#clip0_93_13)">
<g id="Group">
<path id="Vector" d="M7.21222 9.55664L13.1458 3.75977C13.2643 3.64128 13.4079 3.58203 13.5765 3.58203C13.7451 3.58203 13.8841 3.64128 13.9935 3.75977C14.112 3.86914 14.1712 4.00814 14.1712 4.17676C14.1712 4.34538 14.112 4.48893 13.9935 4.60742L7.63605 10.8281C7.51756 10.9466 7.37628 11.0059 7.21222 11.0059C7.04816 11.0059 6.90688 10.9466 6.78839 10.8281L0.567688 4.60742C0.449198 4.48893 0.389954 4.34538 0.389954 4.17676C0.389954 4.00814 0.449198 3.86914 0.567688 3.75977C0.686178 3.64128 0.827454 3.58203 0.991516 3.58203C1.15558 3.58203 1.29685 3.64128 1.41534 3.75977L7.21222 9.55664Z" fill="white"/>
</g>
</g>
<defs>
<clipPath id="clip0_93_13">
<rect width="14" height="14" fill="white" transform="matrix(1 0 0 -1 0.389954 14)"/>
</clipPath>
</defs>
</svg>
